<mxfile host="app.diagrams.net" modified="2023-09-17T10:50:14.555Z" agent="Mozilla/5.0 (Windows NT 10.0; Win64; x64) AppleWebKit/537.36 (KHTML, like Gecko) Chrome/116.0.0.0 Safari/537.36 Edg/116.0.1938.81" etag="wTxcZiwGmIuWM92KfE5Z" version="21.7.5" type="device">
  <diagram id="Xkom6zYpveaYPhm_AT7l" name="第 1 页">
    <mxGraphModel dx="1215" dy="1150" grid="1" gridSize="10" guides="1" tooltips="1" connect="1" arrows="0" fold="1" page="1" pageScale="1" pageWidth="827" pageHeight="1169" math="0" shadow="0">
      <root>
        <mxCell id="0" />
        <mxCell id="1" parent="0" />
        <mxCell id="2LYNguo5QLlSk_e27mw1-5" value="GraphQL" style="rounded=0;whiteSpace=wrap;html=1;sketch=1;hachureGap=4;jiggle=2;curveFitting=1;fontFamily=Architects Daughter;fontSource=https%3A%2F%2Ffonts.googleapis.com%2Fcss%3Ffamily%3DArchitects%2BDaughter;fontSize=20;" parent="1" vertex="1">
          <mxGeometry x="430" y="260" width="120" height="60" as="geometry" />
        </mxCell>
        <mxCell id="2LYNguo5QLlSk_e27mw1-7" value="Docker" style="rounded=0;whiteSpace=wrap;html=1;sketch=1;hachureGap=4;jiggle=2;curveFitting=1;fontFamily=Architects Daughter;fontSource=https%3A%2F%2Ffonts.googleapis.com%2Fcss%3Ffamily%3DArchitects%2BDaughter;fontSize=20;" parent="1" vertex="1">
          <mxGeometry x="290" y="260" width="120" height="60" as="geometry" />
        </mxCell>
        <mxCell id="2LYNguo5QLlSk_e27mw1-8" value="Nuget" style="rounded=0;whiteSpace=wrap;html=1;sketch=1;hachureGap=4;jiggle=2;curveFitting=1;fontFamily=Architects Daughter;fontSource=https%3A%2F%2Ffonts.googleapis.com%2Fcss%3Ffamily%3DArchitects%2BDaughter;fontSize=20;" parent="1" vertex="1">
          <mxGeometry x="150" y="260" width="120" height="60" as="geometry" />
        </mxCell>
        <mxCell id="2LYNguo5QLlSk_e27mw1-9" value="HTTP" style="rounded=0;whiteSpace=wrap;html=1;sketch=1;hachureGap=4;jiggle=2;curveFitting=1;fontFamily=Architects Daughter;fontSource=https%3A%2F%2Ffonts.googleapis.com%2Fcss%3Ffamily%3DArchitects%2BDaughter;fontSize=20;" parent="1" vertex="1">
          <mxGeometry x="150" y="180" width="400" height="60" as="geometry" />
        </mxCell>
        <mxCell id="2LYNguo5QLlSk_e27mw1-10" value="Domain" style="rounded=0;sketch=1;hachureGap=4;jiggle=2;curveFitting=1;fontFamily=Architects Daughter;fontSource=https%3A%2F%2Ffonts.googleapis.com%2Fcss%3Ffamily%3DArchitects%2BDaughter;fontSize=20;align=center;verticalAlign=top;labelPosition=center;verticalLabelPosition=middle;horizontal=1;html=1;whiteSpace=wrap;" parent="1" vertex="1">
          <mxGeometry x="150" y="340" width="400" height="150" as="geometry" />
        </mxCell>
        <mxCell id="2LYNguo5QLlSk_e27mw1-11" value="PostgreQL" style="rounded=0;whiteSpace=wrap;html=1;sketch=1;hachureGap=4;jiggle=2;curveFitting=1;fontFamily=Architects Daughter;fontSource=https%3A%2F%2Ffonts.googleapis.com%2Fcss%3Ffamily%3DArchitects%2BDaughter;fontSize=20;" parent="1" vertex="1">
          <mxGeometry x="150" y="510" width="200" height="60" as="geometry" />
        </mxCell>
        <mxCell id="2LYNguo5QLlSk_e27mw1-12" value="Minio" style="rounded=0;whiteSpace=wrap;html=1;sketch=1;hachureGap=4;jiggle=2;curveFitting=1;fontFamily=Architects Daughter;fontSource=https%3A%2F%2Ffonts.googleapis.com%2Fcss%3Ffamily%3DArchitects%2BDaughter;fontSize=20;" parent="1" vertex="1">
          <mxGeometry x="370" y="510" width="180" height="60" as="geometry" />
        </mxCell>
        <mxCell id="25c2rK7bLU-GEzgvZQCL-4" value="分片上传" style="rounded=0;whiteSpace=wrap;html=1;sketch=1;hachureGap=4;jiggle=2;curveFitting=1;fontFamily=Architects Daughter;fontSource=https%3A%2F%2Ffonts.googleapis.com%2Fcss%3Ffamily%3DArchitects%2BDaughter;fontSize=20;" vertex="1" parent="1">
          <mxGeometry x="430" y="375" width="110" height="50" as="geometry" />
        </mxCell>
      </root>
    </mxGraphModel>
  </diagram>
</mxfile>
